<svg width="707" height="99" viewBox="0 0 690 99" fill="none" xmlns="http://www.w3.org/2000/svg">
<path d="M171.43 85.7999V1.45996H222.69V20.0599H192.59V37.95H219.43V56.27H192.59V85.7999H171.43Z" fill="#2A076D"/>
<path d="M268.13 0.0400391C292.56 0.0400391 312.13 17.93 312.13 43.63C312.13 69.33 292.54 87.22 268.13 87.22C243.72 87.22 224.25 69.36 224.25 43.63C224.25 17.9 243.75 0.0400391 268.13 0.0400391ZM268.13 19.04C255.35 19.04 245.98 28.84 245.98 43.61C245.98 58.38 255.35 68.1799 268.13 68.1799C280.91 68.1799 290.28 58.38 290.28 43.61C290.28 28.84 281.05 19.0599 268.13 19.0599V19.04Z" fill="#2A076D"/>
<path d="M317.26 1.45996H338.42V50.87C338.42 64.79 344.1 69.61 353.62 69.61C358.09 69.605 362.552 69.227 366.96 68.48V1.47998H388.12V82.84C380.88 85.11 364.41 87.24 353.62 87.24C334.3 87.24 317.26 79.57 317.26 55.58V1.45996Z" fill="#2A076D"/>
<path d="M453.58 53.14V1.45996H474.03V85.7999H454.03L418.75 35.11V85.7999H398.35V1.45996H419.65L453.58 53.14Z" fill="#2A076D"/>
<path d="M484.26 2.17004C493.615 0.801791 503.055 0.0900473 512.51 0.0400391C540.63 0.0400391 559.8 14.52 559.8 42.78C559.8 73.59 539.8 86.9399 511.95 86.9399C501.86 86.9399 490.79 86.3699 484.26 84.9399V2.17004ZM505.41 68.0499C508.43 68.3479 511.464 68.4915 514.5 68.48C528.56 68.48 538.07 60.39 538.07 42.78C538.07 26.59 527.42 19.49 514.07 19.49C511.174 19.4851 508.281 19.6287 505.4 19.92L505.41 68.0499Z" fill="#2A076D"/>
<path d="M622.75 67.2V85.7999H565.95V1.45996H621.75V20.0599H586.75V34.54H618.56V52.72H586.75V67.2H622.75Z" fill="#2A076D"/>
<path d="M630.51 2.17004C639.869 0.802269 649.312 0.0905282 658.77 0.0400391C686.89 0.0400391 706.06 14.52 706.06 42.78C706.06 73.59 686.06 86.9399 658.2 86.9399C648.12 86.9399 637.05 86.3699 630.51 84.9399V2.17004ZM651.67 68.0499C654.69 68.3479 657.724 68.4915 660.76 68.48C674.82 68.48 684.33 60.39 684.33 42.78C684.33 26.59 673.68 19.49 660.33 19.49C657.438 19.4853 654.547 19.6289 651.67 19.92V68.0499Z" fill="#2A076D"/>
<path d="M53.3398 81.02L42.1398 91.02L35.5598 93.3199L29.6298 95.13L5.09982 98.59L1.96982 97.11V93.11L0.819824 90.64V78.78H16.2898L31.4398 74.5C35.2798 73.6267 37.1998 71.2133 37.1998 67.26C37.1596 66.0308 36.8609 64.8239 36.3234 63.7178C35.7858 62.6117 35.0214 61.6311 34.0798 60.84L20.0798 56.0599L8.22981 54.0599C7.34339 52.2703 6.89117 50.297 6.90982 48.2999V40.36L10.9098 38.71C13.4514 37.9668 15.9516 37.0889 18.3998 36.08C21.423 34.8692 24.3657 33.4664 27.2098 31.88C29.8482 30.436 32.3545 28.7629 34.6998 26.88C36.8398 25.12 37.9098 23.4799 37.9098 21.9399C37.8619 21.4095 37.7059 20.8946 37.4513 20.4268C37.1968 19.959 36.8491 19.5483 36.4298 19.22C35.4298 18.29 33.6898 17.71 31.1598 17.49L10.5798 16.49L4.97981 17.3199L1.85982 16.49V4.95996L3.00981 0.0200195H21.7498L22.0798 0.839966L25.6998 0.51001L42.8198 3.15002L50.3998 9.90002L52.5398 21.75L48.9098 27.35L46.1098 32.78L33.5998 42.17L38.3798 42.99C39.7838 43.9674 41.3016 44.77 42.8998 45.38C44.2555 45.8656 45.5534 46.4994 46.7698 47.27C49.2201 48.5764 51.3776 50.3698 53.1098 52.54C54.4459 54.3368 55.4236 56.3738 55.9898 58.54C56.5501 60.7234 56.8852 62.9583 56.9898 65.21C57.1107 67.6386 57.388 70.0569 57.8198 72.45L53.3398 81.02Z" fill="#2A076D"/>
<path d="M129.07 86.5699H90.9001L82.2702 86.1899L67.5002 87.92L63.6602 85.23V72.23L65.7702 65.9L86.4902 53.36L107.21 32.26L106.44 27.85L92.4402 24.2H77.0901L71.3401 23.4399L68.6501 20.75C68.3901 19.47 68.1101 18 67.7901 16.34C67.4714 14.6924 67.3106 13.0181 67.3102 11.34C67.3083 9.82379 67.4693 8.31179 67.7901 6.82996C68.088 5.42336 68.5062 4.04496 69.0401 2.70996C70.8715 2.72891 72.7002 2.56816 74.5002 2.22998C76.1002 1.90998 78.1802 1.62333 80.7402 1.37L107.21 3.47998L112.21 5.01001L120.66 8.65002L125.07 12.87L126.22 18.0499V22.47L119.31 39.54L106.31 54.88L99.2101 62.17L93.0702 66.39L105.16 64.28L116.86 65.0499L126.07 64.47L131.63 65.24V80.78L129.07 86.5699Z" fill="#2A076D"/>
<path d="M158.01 20.23L160.14 27.7999L161.5 36.34V82.14L156.45 86.7999H142.29L139.37 83.7V7.80994L141.51 1.41003H153.93L157.04 5.08997L158.01 20.23Z" fill="#2A076D"/>
</svg>
