<svg width="429" height="92" viewBox="0 0 429 92" fill="none" xmlns="http://www.w3.org/2000/svg">
<path fill-rule="evenodd" clip-rule="evenodd" d="M427.007 12.9622C426.989 6.9119 422.134 2.0007 416.042 1.99756C410.015 1.99442 405.089 6.84489 405.081 12.9496C405.072 18.9632 409.908 23.911 416.036 23.9194C422.067 23.9278 426.98 19.0721 427.007 12.9622ZM416.041 25.918C408.884 25.918 403.08 20.1138 403.082 12.9569C403.083 5.799 408.89 -0.00418619 416.045 2.26584e-06C423.205 0.00418972 429.008 5.81052 429 12.9643C428.993 20.1222 423.197 25.917 416.041 25.918Z" fill="#1D1D1B"/>
<path fill-rule="evenodd" clip-rule="evenodd" d="M414.05 12.9586H414.176C415.388 12.9586 416.602 12.9597 417.814 12.9576C418.009 12.9565 418.205 12.9471 418.398 12.9178C418.884 12.8476 419.286 12.6173 419.593 12.2331C419.955 11.7808 420.072 11.2573 420.006 10.6909C419.952 10.2209 419.753 9.81571 419.403 9.49116C418.997 9.11531 418.505 8.97188 417.961 8.97083C416.693 8.97083 415.424 8.97083 414.155 8.97083H414.05V12.9586ZM412.062 6.97746H412.187C414.12 6.97746 416.054 6.97955 417.988 6.97641C418.812 6.97536 419.576 7.17952 420.266 7.63493C420.901 8.05371 421.374 8.61696 421.681 9.31632C421.955 9.9382 422.059 10.5894 422.011 11.2668C421.964 11.9609 421.752 12.6037 421.371 13.1868C421.07 13.6485 420.689 14.037 420.217 14.3228C419.946 14.4861 419.655 14.6159 419.36 14.7688C419.909 16.1392 420.467 17.5348 421.028 18.9398H420.008C419.722 18.9398 419.438 18.9345 419.151 18.9419C419.054 18.945 419.015 18.9105 418.981 18.8257C418.478 17.561 417.972 16.2983 417.467 15.0347C417.448 14.9865 417.435 14.9499 417.368 14.9499C416.278 14.953 415.188 14.952 414.098 14.952C414.086 14.952 414.072 14.9551 414.049 14.9572V18.9345H412.062V6.97746Z" fill="#1D1D1B"/>
<path fill-rule="evenodd" clip-rule="evenodd" d="M51.052 33.3867H41.6546C41.6546 47.735 41.5541 61.475 41.5541 75.8202H50.7483C64.3868 75.8202 72.6712 66.1235 72.6712 55.0091C72.6712 43.3881 66.9131 33.3867 51.052 33.3867ZM51.9596 90.0659H25.894V19.2436H54.7895C74.6929 19.2436 87.2206 36.0145 87.2206 54.604C87.2206 74.8099 73.38 90.0659 51.9596 90.0659Z" fill="#1E1E1C"/>
<path fill-rule="evenodd" clip-rule="evenodd" d="M106.524 90.0606L106.624 19.2383H156.232V33.7876H122.385C122.385 38.435 122.285 43.0824 122.285 47.8292H150.977V61.9754H122.385V75.4129H157.343V90.0606H106.524Z" fill="#1E1E1C"/>
<path fill-rule="evenodd" clip-rule="evenodd" d="M214.993 90.262H202.668L174.176 21.6613L174.075 19.2387H189.634L208.729 68.3402L227.32 19.2387H242.374V21.6613L214.993 90.262Z" fill="#1E1E1C"/>
<path fill-rule="evenodd" clip-rule="evenodd" d="M292.418 32.1486C278.881 32.1486 271.856 42.1259 271.856 54.7457C271.856 66.6547 278.881 76.5304 292.418 76.5304C305.958 76.5304 312.979 66.9604 312.979 54.7457C312.979 42.3269 305.855 32.1486 292.418 32.1486ZM292.418 92C274.809 92 256.791 79.3771 256.791 54.44C256.791 28.6884 274.809 16.678 292.418 16.678C310.129 16.678 328.044 30.0128 328.044 54.7457C328.044 79.6828 310.026 92 292.418 92Z" fill="#1E1E1C"/>
<path fill-rule="evenodd" clip-rule="evenodd" d="M378.757 33.7926H363.299V48.2393C368.554 48.2393 377.949 48.3388 377.949 48.3388C384.717 48.3388 387.345 44.6022 387.345 40.8626C387.345 37.2255 385.527 33.7926 378.757 33.7926ZM389.062 90.0656L368.351 63.3927H363.299V90.0656H347.741L347.64 19.2433H381.182C395.227 19.2433 402.6 27.7287 402.6 40.6616C402.6 51.1676 394.418 59.4531 385.325 62.0799L404.116 86.5311V90.0656H389.062Z" fill="#1E1E1C"/>
<path fill-rule="evenodd" clip-rule="evenodd" d="M156.288 12.9531H106.525V6.17001H156.288V12.9531Z" fill="#010303"/>
</svg>
