<svg width="858" height="116" viewBox="0 0 858 116" fill="none" xmlns="http://www.w3.org/2000/svg">
<path d="M26.8766 0.514661L24.8752 0.914952L27.1626 1.8299C28.4206 2.34456 30.9939 3.20233 32.881 3.77417C44.2035 6.97649 53.2386 15.497 57.4703 26.9338C58.7855 30.4793 59.1286 32.4235 59.3574 38.1992C59.6433 46.4337 58.7283 51.5231 55.8119 57.5847C49.2357 71.3089 36.4264 78.171 14.8679 79.6006C10.0073 79.9437 4.63193 80.344 3.03077 80.4584L0 80.7443V98.1855V115.57H18.8137C33.3385 115.57 37.6845 115.398 37.9132 114.826C38.0848 114.483 44.3179 98.5858 51.7518 79.5434C72.5098 26.5335 81.2018 3.71699 81.2018 2.11582C81.2018 1.71553 80.6299 1.14369 79.9437 0.914952C78.2854 0.343108 29.5643 1.9148e-06 26.8766 0.514661ZM78.9716 2.74485C79.5434 3.31669 77.8851 8.00581 70.8514 25.6186L62.045 47.7489L61.6447 40.8868C60.7298 27.0482 58.0421 19.7858 51.18 12.8665C49.007 10.6363 45.1185 7.43397 42.6023 5.77562C40.0862 4.11728 37.7989 2.51611 37.4558 2.23019C37.1126 1.94427 45.29 1.77272 57.5846 1.88709C73.1388 2.00145 78.4569 2.23019 78.9716 2.74485ZM54.897 66.5054C54.268 68.1638 49.8076 79.4291 45.0041 91.5522L36.2549 113.568L18.9852 113.74L1.71553 113.854V97.8424V81.8308H8.00581C21.5013 81.8308 30.8224 80.0009 39.7431 75.5977C44.3179 73.3675 46.5481 71.7664 50.3222 68.1638C53.0099 65.6476 55.3545 63.589 55.5832 63.5318C55.8119 63.5318 55.526 64.9043 54.897 66.5054Z" fill="black"/>
<path d="M126.206 0.457476C124.891 0.686214 124.662 0.914951 125.005 1.94427C125.634 4.00291 139.93 41.0584 150.109 66.9629C155.37 80.344 160.173 92.6387 160.802 94.2398C161.489 95.8982 162.175 97.2706 162.404 97.2706C162.632 97.2706 163.033 96.2985 163.204 95.0976C163.776 91.5522 164.234 2.68767 163.662 1.88709C163.376 1.48679 161.489 0.914951 159.487 0.629029C155.942 0.11437 129.408 1.43796e-06 126.206 0.457476ZM161.146 2.80204L162.404 3.54543V47.9205C162.404 73.4247 162.175 92.124 161.889 91.8381C161.031 90.866 128.436 6.2331 127.979 3.77417C127.693 2.05864 129.694 1.8299 145.534 1.94427C155.999 2.05864 160.173 2.23019 161.146 2.80204Z" fill="black"/>
<path d="M273.341 57.8134V115.57L287.523 115.512C295.3 115.512 302.791 115.284 304.221 115.055C309.653 114.14 303.649 113.683 289.296 113.968L275.057 114.197V95.6123C275.057 85.3763 275.286 77.2561 275.571 77.542C275.8 77.8851 276.715 79.8866 277.573 82.1167C280.89 90.6944 286.436 99.4436 292.212 105.276C295.586 108.707 300.675 112.482 301.19 111.91C301.362 111.738 298.331 108.307 294.442 104.247C287.065 96.6416 283.52 91.5522 280.546 84.1182C273.513 66.9057 274.256 47.3487 282.434 30.6508C288.667 18.0131 295.472 11.5512 311.769 2.68767C314.4 1.25806 314.628 0.972136 313.656 0.571846C313.027 0.343108 303.706 0.114371 292.955 0.114371L273.341 0.0571863V57.8134ZM307.08 2.23019C307.08 2.45893 304.564 4.34601 301.533 6.34747C291.011 13.4383 282.891 23.0453 278.431 33.8531C277.401 36.3693 276.315 38.142 276.086 37.9132C275.8 37.6273 275.457 29.3928 275.228 19.6142L274.885 1.77272H290.954C299.818 1.77272 307.08 1.94427 307.08 2.23019Z" fill="black"/>
<path d="M369.125 0.571846C367.467 0.914952 367.467 0.972136 371.698 3.43106C374.043 4.80349 377.817 7.03368 379.99 8.4061C403.321 22.5878 412.986 54.7826 402.235 82.6314C398.518 92.2956 394.057 98.8718 385.994 106.592C383.078 109.336 380.848 111.795 381.077 111.967C381.248 112.139 383.135 111.052 385.251 109.451C391.999 104.533 400.005 93.7252 404.122 84.0038C405.208 81.3733 406.295 78.7429 406.581 78.1138C406.867 77.4276 407.096 84.5757 407.096 95.5551L407.153 114.197L393.2 113.968C385.48 113.797 378.446 113.911 377.588 114.14C375.987 114.597 376.044 114.597 378.275 115.055C379.533 115.284 386.909 115.512 394.744 115.512L408.868 115.57V57.8134V0.0571863L389.883 0.114371C379.418 0.171555 370.097 0.343108 369.125 0.571846ZM405.895 3.14514C406.752 4.00291 406.867 5.71844 406.867 19.9573C406.81 28.6494 406.638 36.3121 406.409 36.8839C406.066 37.7989 405.38 36.8267 402.978 31.9661C397.832 21.5585 390.569 13.324 380.39 6.29028L375.015 2.63048L380.39 2.28738C383.307 2.05864 390.055 1.94427 395.316 2.00145C403.55 2.11582 405.037 2.28738 405.895 3.14514Z" fill="black"/>
<path d="M482.808 0.571851C476.689 0.914957 475.259 1.37243 477.604 2.28738C484.923 5.08941 492.586 9.43543 496.589 13.2096C500.363 16.755 502.422 19.9002 504.538 25.3899C506.196 29.7359 506.31 30.5936 506.367 37.5129C506.367 43.8032 506.139 45.5759 505.052 48.9498C502.422 56.8984 497.447 63.4746 490.585 68.1638C488.755 69.3646 487.154 70.9086 486.925 71.4805C486.41 73.196 503.851 100.702 505.453 100.702C506.253 100.702 515.746 77.0273 532.386 33.796C543.08 5.94718 544.509 1.88709 543.766 1.42962C541.765 0.228745 499.563 -0.400283 482.808 0.571851ZM541.364 2.11583C542.565 2.45893 542.565 2.5733 541.822 4.57476C519.52 62.1594 505.395 97.8424 504.995 97.8424C504.48 97.8424 494.416 81.9452 491.671 76.8558C490.127 74.0537 489.555 72.3382 489.784 71.5376C489.956 70.9086 490.356 70.394 490.642 70.394C490.871 70.394 493.101 68.5069 495.56 66.2195C500.992 61.1301 504.766 55.4688 506.939 49.1786C508.312 45.0613 508.54 43.4601 508.598 38.0848C508.598 32.5379 508.369 31.2227 506.825 26.7623C505.853 24.0174 504.194 20.3005 503.165 18.5277C500.249 13.5527 493.387 7.03368 488.526 4.46039C486.239 3.25952 484.351 2.17301 484.351 2.00146C484.351 1.65835 539.935 1.71554 541.364 2.11583Z" fill="black"/>
<path d="M588.599 0.457476C587.855 0.571845 587.283 0.800582 587.283 0.914951C587.283 1.25806 603.695 43.5745 613.302 68.1066C618.563 81.4877 623.252 93.4964 623.767 94.8689C624.282 96.1841 624.854 97.2706 625.082 97.2706C626.054 97.2706 627.541 29.5643 626.912 12.1803L626.569 1.65835L625.082 1.02932C623.596 0.400292 591.172 -0.114367 588.599 0.457476ZM623.996 2.74485C624.625 3.31669 624.968 5.43252 625.254 11.5512C625.711 21.9016 624.968 92.4671 624.396 91.4378C623.767 90.3513 600.321 29.6215 594.946 15.3254C592.602 9.09231 590.715 3.6598 590.715 3.20233C590.715 2.00145 592.544 1.88709 608.499 2.00145C619.25 2.05864 623.367 2.23019 623.996 2.74485Z" fill="black"/>
<path d="M678.492 0.743403C678.149 1.60117 696.906 58.1565 698.907 62.2738C699.536 63.6462 700.337 64.6183 700.68 64.504C701.023 64.3896 702.167 61.7591 703.196 58.614C708 44.4894 719.379 5.20378 719.379 2.85922C719.379 0.57185 717.664 0.343113 697.764 0.17156C682.152 6.61367e-06 678.721 0.114375 678.492 0.743403ZM717.435 2.51612C718.121 3.14515 702.281 57.9849 701.137 59.1286C700.623 59.6433 697.992 53.2958 692.617 38.3707C688.214 26.0761 681.066 4.46039 681.066 3.3167C681.066 2.74486 681.752 2.34457 682.953 2.17301C686.155 1.71554 716.978 2.05864 717.435 2.51612Z" fill="black"/>
<path d="M773.133 39.4C773.133 85.1475 773.533 100.416 774.619 98.3571C777.193 93.3821 813.333 1.14368 812.819 0.68621C812.647 0.514656 803.612 0.285919 792.804 0.17155L773.133 -2.81051e-06V39.4ZM806.757 2.173C809.788 2.51611 809.845 2.57329 809.502 4.17446C809.102 6.29028 803.326 21.3869 788.458 59.1858C777.707 86.4628 776.278 89.7794 775.82 88.3498C775.534 87.4349 775.191 67.5919 775.02 44.2035L774.734 1.77271H789.201C797.207 1.77271 805.099 1.94427 806.757 2.173Z" fill="black"/>
<path d="M207.007 2.2874C205.692 2.51614 205.063 2.91643 205.177 3.48827C205.463 4.86069 229.138 47.2915 232.512 52.4953C236.171 58.2137 237.544 58.6712 238.173 54.5539C238.516 52.0378 236.972 5.83283 236.4 3.0308L236.171 1.77274L222.562 1.82992C215.128 1.88711 208.094 2.11585 207.007 2.2874Z" fill="black"/>
<path d="M0 40.944V50.9513H4.46038C16.1832 50.9513 22.7022 45.8047 20.9295 38.0276C20.4148 35.683 16.8122 32.3092 14.0102 31.5658C12.7521 31.2227 9.09231 30.9367 5.88999 30.9367H0V40.944Z" fill="black"/>
<path d="M446.038 40.944V51.1228L452.5 50.8369C460.105 50.551 464.28 49.007 466.91 45.576C470.399 41.0012 469.14 35.2828 464.051 32.6523C461.592 31.3942 460.391 31.2227 453.643 31.0511L446.038 30.8224V40.944Z" fill="black"/>
<path d="M333.899 34.0247C322.92 38.2563 317.259 46.6053 317.202 58.6712C317.087 78.9716 334.014 91.495 351.112 83.7751C357.345 80.9731 362.778 73.5391 364.264 65.8764C366.78 52.6668 361.52 40.4865 351.226 35.3971C347.852 33.7388 346.88 33.51 341.734 33.3957C337.902 33.2813 335.272 33.51 333.899 34.0247Z" fill="black"/>
<path d="M565.153 42.6595C564.067 44.7754 557.49 65.3617 557.147 67.8207C556.861 70.1652 556.861 70.2224 558.691 70.6227C561.55 71.1374 571.615 71.023 573.216 70.394C574.017 70.108 574.703 69.479 574.703 69.0787C574.703 67.9922 568.184 47.2343 566.811 44.0892C565.839 41.8018 565.668 41.6302 565.153 42.6595Z" fill="black"/>
<path d="M100.587 47.3486C99.1005 51.0656 92.6387 69.9936 92.6387 70.8514C92.6387 71.4804 110.938 70.6227 111.624 69.9365C112.139 69.4218 111.853 67.8778 110.366 63.1315C107.735 54.5539 103.447 42.9454 102.932 42.9454C102.646 42.9454 101.617 44.9469 100.587 47.3486Z" fill="black"/>
<path d="M831.003 47.6346C826.428 60.3295 823.855 69.3075 824.484 69.9365C825.342 70.7942 843.469 71.3661 843.469 70.5655C843.469 70.2796 841.983 65.5333 840.096 60.0436C836.607 49.5788 833.92 42.9455 833.176 42.9455C832.89 42.9455 831.918 45.0613 831.003 47.6346Z" fill="black"/>
<path d="M661.28 54.7826C660.822 57.9849 661.28 79.086 662.252 100.587L662.995 115.684L672.831 115.455C678.836 115.341 682.953 115.055 683.353 114.655C683.753 114.254 681.352 106.363 675.119 87.778C665.512 59.243 662.938 52.095 662.195 52.095C661.909 52.095 661.509 53.2958 661.28 54.7826ZM672.259 85.8337C680.151 109.851 680.894 112.482 680.094 113.111C679.407 113.625 676.72 113.854 671.63 113.854H664.082L663.739 95.0976C663.51 84.8044 663.224 72.1667 663.053 66.9629C662.881 61.7591 662.938 57.9278 663.167 58.3852C663.396 58.8427 667.456 71.1945 672.259 85.8337Z" fill="black"/>
<path d="M733.79 56.2122C731.216 61.9307 715.891 107.964 715.033 112.424C714.69 114.312 714.747 114.369 717.149 114.998C718.521 115.398 722.41 115.57 726.356 115.455C734.304 115.226 734.99 114.883 735.734 109.737C736.306 105.734 736.077 58.7283 735.505 55.8119L734.99 53.5246L733.79 56.2122Z" fill="black"/>
<path d="M198.658 62.6741C198.487 63.1315 198.601 66.5626 198.944 70.3368C199.287 74.1109 199.573 85.8337 199.573 96.3557V115.57H212.611C224.106 115.57 229.366 115.169 230.224 114.254C231.368 113.168 201.175 61.8163 199.459 61.8163C199.173 61.8163 198.83 62.2166 198.658 62.6741ZM202.433 67.935C205.864 73.6535 228.737 113.397 228.737 113.625C228.737 113.74 222.562 113.854 215.013 113.854H201.289V105.391C201.289 100.702 201.117 89.8938 200.889 81.3733C200.717 72.7957 200.66 65.8192 200.831 65.8192C201.003 65.8192 201.746 66.7913 202.433 67.935Z" fill="black"/>
<path d="M446.438 78.1138C446.21 79.3719 446.038 88.3498 446.038 98.014V115.684L457.132 115.455C463.25 115.341 468.397 115.112 468.626 114.941C469.083 114.426 465.138 106.592 457.875 93.5536C446.61 73.3104 446.667 75.2546 457.989 97.4422C464.509 110.194 465.652 112.825 464.909 113.282C464.451 113.568 460.22 113.854 455.588 113.854H447.124L447.468 96.5272C447.696 86.863 447.582 78.5141 447.296 77.542L446.781 75.8265L446.438 78.1138Z" fill="black"/>
<path d="M85.2047 102.417C84.4041 102.646 91.9525 102.875 102.131 102.932C116.084 102.989 120.659 103.161 121.059 103.675C121.917 104.762 124.605 113.168 124.204 113.511C124.033 113.683 114.14 113.854 102.246 113.854C85.3191 113.854 80.63 113.683 80.63 113.111C80.63 112.768 81.259 110.48 82.0024 108.136C82.7458 105.791 83.2604 103.732 83.1461 103.618C82.4599 102.875 80.8587 106.649 78.6285 114.312L78.2282 115.627L100.473 115.455C128.436 115.226 127.292 115.684 124.147 106.706L122.546 102.131L104.59 102.017C94.6973 102.017 86.0053 102.131 85.2047 102.417Z" fill="black"/>
<path d="M545.253 103.961C544.738 105.162 543.938 107.793 543.423 109.794C542.565 113.225 542.565 113.511 543.48 114.197C544.052 114.597 546.682 115.112 549.313 115.284C555.031 115.798 585.282 115.284 587.169 114.712C588.885 114.14 588.77 112.825 586.483 106.992L584.596 102.131L565.382 101.96L546.111 101.845L545.253 103.961Z" fill="black"/>
<path d="M811.103 108.765L808.701 115.684L832.89 115.455C846.214 115.341 857.251 115.112 857.479 114.941C857.651 114.712 856.736 111.681 855.364 108.193L852.905 101.845H833.176H813.447L811.103 108.765ZM850.674 104.19C851.99 104.819 852.619 105.791 853.591 108.707C854.735 112.139 854.735 112.482 853.877 112.996C853.305 113.339 844.727 113.625 832.49 113.74C812.59 113.968 812.018 113.911 812.018 112.825C812.018 111.624 813.848 106.077 814.877 104.133L815.563 102.817L832.318 103.103C844.727 103.332 849.474 103.618 850.674 104.19Z" fill="black"/>
</svg>
